:SAMPLES-PER-SECOND 30
:FULLY-SPECIFIED
:DEGREES
1376
root  6.89486 39.3262 -18.6324 11.9113 -80.1237 -18.6733
RightUpLeg  -4.7144 -20.0103 2.0504
RightLeg  25.2923 -1.80514 -0.402769
RightFoot  -12.3108 -0.119968 -4.39222
RightToes  0.00048216 0.542163 -0.142577
Spine  16.2196 -2.67108 7.27614
Spine1  11.6132 -1.97691 2.22992
HEad  -16.8575 -13.1443 4.42075
LeftShoulder1  10.1123 -15.3739 -46.7377
LeftArm  -15.4894 19.5805 -18.1371
LeftForeArm  39.5627 -76.2584 -49.8179
LeftHand  -0.25398 0.0180481 5.50724
RightShoulder  4.98437 9.14038 33.4767
RightArm  -6.63929 -24.2643 26.494
RightForeArm  42.9858 77.6158 99.5835
RightHand  1.15875 -13.8398 -16.5419
LeftUpLeg  -20.3905 10.3413 3.93982
LeftLeg  54.0299 2.56706 4.23913
LeftFoot  1.90234 0.223088 -2.06135
LeftToes  1.06244e-005 4.65855e-005 -8.18506e-006
1377
root  5.30481 39.5041 -18.4167 12.0929 -80.0888 -19.4225
RightUpLeg  0.166843 -18.3642 0.791242
RightLeg  22.822 -3.39646 0.297786
RightFoot  -13.4169 -0.155046 -3.51206
RightToes  0.00048216 0.542163 -0.142577
Spine  16.541 -2.5612 7.59155
Spine1  11.3591 -1.67889 1.27073
HEad  -16.313 -13.1105 3.43121
LeftShoulder1  10.0838 -15.3376 -46.6951
LeftArm  -16.9832 20.0708 -17.9333
LeftForeArm  40.2447 -76.3713 -50.3607
LeftHand  -0.25398 0.0180481 5.50724
RightShoulder  5.01407 9.15612 33.661
RightArm  -6.28468 -23.4484 27.2783
RightForeArm  41.6894 77.658 98.3079
RightHand  1.12691 -13.2351 -17.2869
LeftUpLeg  -20.775 11.8515 3.84
LeftLeg  43.0882 3.64371 4.03881
LeftFoot  -0.578024 0.273706 -2.87276
LeftToes  1.06244e-005 4.65855e-005 -8.18506e-006
1378
root  3.71011 39.6205 -18.1762 12.7493 -80.1645 -20.3567
RightUpLeg  4.79948 -15.817 0.00316515
RightLeg  19.8935 -5.76376 1.08411
RightFoot  -14.1958 -0.176488 -3.21393
RightToes  0.00048216 0.542163 -0.142577
Spine  16.4584 -2.32235 7.70747
Spine1  11.4489 -1.35943 0.518547
HEad  -15.5734 -12.7626 2.47112
LeftShoulder1  10.0488 -15.2958 -46.6347
LeftArm  -18.0794 20.684 -17.7841
LeftForeArm  41.9772 -76.6905 -52.1142
LeftHand  -0.25398 0.0180481 5.50724
RightShoulder  5.02784 9.15751 33.7646
RightArm  -6.17061 -22.8055 27.9098
RightForeArm  41.4624 77.669 97.9999
RightHand  1.12073 -13.012 -17.6737
LeftUpLeg  -19.9997 14.9144 3.04871
LeftLeg  28.9071 2.85873 2.44617
LeftFoot  -1.20025 0.325432 -3.58631
LeftToes  1.06244e-005 4.65855e-005 -8.18506e-006
1379
root  2.11147 39.6985 -17.8943 12.2717 -80.5063 -20.1386
RightUpLeg  9.59827 -13.1477 -0.771732
RightLeg  16.2748 -7.29672 2.04545
RightFoot  -14.7484 -0.165585 -2.25154
RightToes  0.00048216 0.542163 -0.142577
Spine  16.4 -2.07985 7.44398
Spine1  11.8884 -0.940332 -0.507434
HEad  -14.3215 -11.851 1.65676
LeftShoulder1  9.98643 -15.2234 -46.5217
LeftArm  -18.7858 21.4633 -17.6434
LeftForeArm  44.4484 -77.1186 -54.7703
LeftHand  -0.25398 0.0180481 5.50724
RightShoulder  5.05428 9.21682 33.7871
RightArm  -6.02923 -22.403 28.3446
RightForeArm  42.271 77.6628 98.4611
RightHand  1.09368 -12.833 -17.6756
LeftUpLeg  -18.0426 15.8786 2.65791
LeftLeg  13.3706 3.56214 -0.359662
LeftFoot  -0.408162 0.331208 -3.41991
LeftToes  1.06244e-005 4.65855e-005 -8.18506e-006
1380
root  0.454991 39.5942 -17.5214 11.244 -80.8266 -19.3022
RightUpLeg  13.7021 -12.218 -1.92145
RightLeg  14.2831 -6.8102 2.59523
RightFoot  -15.9217 -0.118597 -0.294312
RightToes  0.00048216 0.542163 -0.142577
Spine  16.0217 -1.92917 7.23618
Spine1  12.4035 -0.577111 -1.36176
HEad  -12.1262 -10.4787 1.02293
LeftShoulder1  9.9355 -15.1781 -46.3933
LeftArm  -19.2214 22.3158 -17.4938
LeftForeArm  46.6341 -77.4566 -57.1559
LeftHand  -0.25398 0.0180481 5.50724
RightShoulder  5.1007 9.32398 33.8167
RightArm  -5.72355 -22.2157 28.6154
RightForeArm  42.9338 77.655 98.8769
RightHand  1.08109 -12.774 -17.6217
LeftUpLeg  -15.1781 6.47336 6.00516
LeftLeg  0.237183 16.1987 -5.32176
LeftFoot  -0.549669 0.474739 -5.04853
LeftToes  1.06244e-005 4.65855e-005 -8.18506e-006
1381
root  -1.28553 39.3193 -17.0524 10.3496 -80.9489 -18.4961
RightUpLeg  16.8253 -13.1734 -3.53607
RightLeg  14.7504 -5.11951 2.34758
RightFoot  -17.4035 -0.0553254 1.20903
RightToes  0.00048216 0.542163 -0.142577
Spine  15.1344 -1.80739 7.24556
Spine1  12.6661 -0.35176 -1.84457
HEad  -8.79371 -8.95905 0.559592
LeftShoulder1  9.89698 -15.1578 -46.2598
LeftArm  -19.4754 23.0512 -17.3436
LeftForeArm  48.1919 -77.6667 -58.7623
LeftHand  -0.25398 0.0180481 5.50724
RightShoulder  5.1323 9.37697 33.8979
RightArm  -5.24386 -22.2252 28.7361
RightForeArm  42.9238 77.6379 99.1753
RightHand  1.12948 -13.0128 -17.797
LeftUpLeg  -14.2915 6.1985 5.51783
LeftLeg  -5.56798 21.8221 -8.00554
LeftFoot  -2.08066 0.581173 -6.93108
LeftToes  1.06244e-005 4.65855e-005 -8.18506e-006
1382
root  -3.0588 39.0035 -16.5227 9.10046 -81.0689 -17.6287
RightUpLeg  19.8507 -15.0983 -5.73241
RightLeg  16.3313 -2.09991 1.62063
RightFoot  -18.4434 0.0612605 2.92005
RightToes  0.00048216 0.542163 -0.142577
Spine  14.6215 -1.72203 7.26308
Spine1  12.9336 -0.0299305 -2.4769
HEad  -4.72336 -7.50398 0.188154
LeftShoulder1  9.82878 -15.0817 -46.1254
LeftArm  -19.514 23.4475 -17.2627
LeftForeArm  49.1198 -77.7762 -59.6018
LeftHand  -0.25398 0.0180481 5.50724
RightShoulder  5.11626 9.31488 33.9651
RightArm  -4.62479 -22.496 28.6157
RightForeArm  42.9062 77.5909 99.9727
RightHand  1.17567 -13.114 -18.2364
LeftUpLeg  -14.119 6.64527 4.51837
LeftLeg  -3.84316 27.6208 -8.73987
LeftFoot  -2.03801 0.367214 -4.4657
LeftToes  1.06244e-005 4.65855e-005 -8.18506e-006
1383
root  -4.84338 38.6614 -15.9427 6.2233 -81.6354 -15.8979
RightUpLeg  22.6937 -16.0145 -8.44095
RightLeg  19.5534 1.87169 0.980999
RightFoot  -18.8292 0.382291 7.80003
RightToes  0.00048216 0.542163 -0.142577
Spine  15.0653 -1.42589 6.96896
Spine1  13.3022 0.467675 -3.03536
HEad  -0.598953 -6.20659 -0.0448238
LeftShoulder1  9.74064 -14.9316 -46.0828
LeftArm  -19.351 23.418 -17.3435
LeftForeArm  48.5887 -77.7033 -58.9806
LeftHand  -0.25398 0.0180481 5.50724
RightShoulder  5.08214 9.2041 34.0439
RightArm  -4.01795 -22.938 28.2296
RightForeArm  42.5498 77.547 100.572
RightHand  1.13598 -12.6148 -18.8158
LeftUpLeg  -14.3549 8.93977 2.88729
LeftLeg  3.3312 28.8544 -5.9258
LeftFoot  1.17573 -0.294663 2.37983
LeftToes  1.06244e-005 4.65855e-005 -8.18506e-006
1384
root  -6.58716 38.3957 -15.3566 -3.53015 -82.1951 -7.30768
RightUpLeg  22.6895 -12.7533 -10.3748
RightLeg  26.6597 1.47176 0.455237
RightFoot  -16.0292 0.449004 14.5447
RightToes  0.00048216 0.542163 -0.142577
Spine  16.0054 -0.879891 5.18473
Spine1  13.5227 0.718032 -2.74073
HEad  2.98989 -5.18839 0.0127219
LeftShoulder1  9.71128 -14.8094 -46.2559
LeftArm  -19.1316 23.0695 -17.4283
LeftForeArm  45.99 -77.3535 -56.3834
LeftHand  -0.25398 0.0180481 5.50724
RightShoulder  5.08772 9.15193 34.2505
RightArm  -3.82172 -23.2412 27.9673
RightForeArm  40.6097 77.5758 99.3656
RightHand  1.06853 -12.0215 -19.275
LeftUpLeg  -15.3854 18.2216 -1.57151
LeftLeg  11.4601 18.732 -1.21008
LeftFoot  4.73439 -1.42074 9.95745
LeftToes  1.06244e-005 4.65855e-005 -8.18506e-006
1385
root  -8.21294 38.3017 -14.7869 -19.2685 -81.6837 8.23346
RightUpLeg  17.936 -9.41757 -12.2833
RightLeg  38.6509 -1.18845 -1.35179
RightFoot  -6.39423 -0.673062 16.2809
RightToes  0.00048216 0.542163 -0.142577
Spine  16.8687 -0.511006 2.15959
Spine1  13.2307 0.417365 -1.78048
HEad  5.41582 -4.47209 0.173479
LeftShoulder1  9.79064 -14.825 -46.6034
LeftArm  -18.9001 22.4571 -17.1437
LeftForeArm  42.2947 -76.7929 -52.8341
LeftHand  -0.25398 0.0180481 5.50724
RightShoulder  5.13219 9.1916 34.4725
RightArm  -4.40057 -23.2098 28.3838
RightForeArm  38.0303 77.6454 96.9809
RightHand  1.09346 -12.1508 -19.3362
LeftUpLeg  -17.0044 28.0217 -7.389
LeftLeg  17.0961 7.16189 2.04499
LeftFoot  4.34104 -1.88629 13.4613
LeftToes  1.06244e-005 4.65855e-005 -8.18506e-006
1386
root  -9.60753 38.2432 -14.2316 -32.7927 -80.3766 22.3596
RightUpLeg  9.32815 -6.72822 -13.9845
RightLeg  52.2369 -2.21969 -3.34944
RightFoot  7.13457 -1.60868 10.3266
RightToes  0.00048216 0.542163 -0.142577
Spine  17.9617 -0.47754 -0.47675
Spine1  12.7939 -0.0437851 -1.57657
HEad  6.14346 -3.82773 -0.0767854
LeftShoulder1  9.93251 -14.9886 -46.8673
LeftArm  -18.4925 21.4291 -16.464
LeftForeArm  38.7181 -76.1836 -49.6289
LeftHand  -0.25398 0.0180481 5.50724
RightShoulder  5.16239 9.28884 34.4025
RightArm  -5.4833 -22.8308 29.3648
RightForeArm  37.4472 77.6717 96.1276
RightHand  1.17602 -12.7355 -19.1163
LeftUpLeg  -17.2084 28.8506 -10.3326
LeftLeg  21.187 6.66179 3.30503
LeftFoot  0.320806 -1.31599 12.717
LeftToes  1.06244e-005 4.65855e-005 -8.18506e-006
